<?xml version="1.0" encoding="utf-8" ?>
<svg xmlns="http://www.w3.org/2000/svg" xmlns:xlink="http://www.w3.org/1999/xlink" width="1024" height="1024">
	<path fill="white" d="M0 0L1024 0L1024 1024L0 1024L0 0Z"/>
	<path d="M498.818 97.7108C503.208 97.1841 507.977 97.3761 512.409 97.3472C537.329 97.1849 563.105 100.626 586.393 109.818C632.058 127.843 660.301 157.656 684.244 199.608C690.787 211.073 696.974 222.594 702.195 234.735C703.575 237.946 704.658 241.245 705.19 244.706C709.278 271.286 703.483 321.099 697.601 347.526C696.624 351.916 695.861 356.589 694.21 360.781C696.256 361.574 698.367 362.406 700.243 363.553C704.742 366.304 707.337 371.353 708.391 376.362C711.315 390.255 705.567 418.471 700.636 431.634C696.53 442.597 690.906 452.961 687.327 464.129C684.036 474.399 684.42 486.088 678.198 495.322C673.788 501.867 667.196 503.881 659.858 505.194C654.873 540.458 651.164 548.943 631.483 578.345C631.254 592.122 630.406 605.843 630.452 619.636C646.819 629.25 663.603 653.038 675.425 668.023C678.278 671.639 680.638 676.346 683.894 679.506C685.551 681.112 687.754 682.317 689.818 683.336C704.762 690.72 720.44 696.747 735.929 702.864Q768.432 715.943 801.576 727.301Q818.158 733.024 834.913 738.215C854.462 744.076 874.92 749.251 893.069 758.776C901.195 763.041 908.453 768.363 915.607 774.059C917.669 773.56 920.417 773.195 922.458 773.869C935.62 778.215 947.212 805.846 952.846 817.993C965.295 844.839 972.837 875.484 975.077 904.934C975.368 908.761 976.5 915.422 974.751 918.848C974.108 920.106 973.843 920.231 972.605 920.674C972.32 920.489 971.982 920.367 971.748 920.12C970.936 919.262 970.533 916.917 970.338 915.796C969.489 910.915 969.549 905.624 969.129 900.671C968.591 894.335 967.526 887.979 966.445 881.715C961.85 855.102 952.929 831.502 941.274 807.248C937.066 798.491 932.564 788.272 925.172 781.713C923.55 780.273 921.873 778.985 919.614 779.153C917.05 780.729 918.747 783.849 919.334 786.671C921.362 796.431 921.468 806.868 921.474 816.815C921.492 846.563 917.399 875.312 914.041 904.754C913.461 909.832 914.217 918.715 912.336 922.928L911.052 922.811C908.719 917.799 914.845 880.758 915.577 873.681Q917.364 856.958 918.267 840.165C919.236 820.822 920.001 800.456 915.729 781.46C906.887 772.583 894.621 765.217 883.194 760.192C868.983 753.942 853.951 750.163 839.123 745.735C828.644 742.606 818.288 738.959 807.885 735.579C788.325 729.223 769.56 721.585 750.436 714.103C728.56 705.546 706.726 697.296 685.629 686.915Q704.371 733.627 722.015 780.765C728.688 798.576 736.004 816.242 741.068 834.602C716.395 841.836 696.353 849.405 676.477 866.745C681.324 873.204 719.552 916.789 719.613 920.195L719.02 920.554C714.863 918.543 682.077 877.536 675.271 869.85C655.893 847.963 634.876 827.638 615.754 805.513C610.535 818.648 606.585 832.413 602.252 845.853C595.706 866.156 588.851 886.308 580.553 905.968C579.105 909.398 577.886 914.311 575.369 917.013C574.62 917.816 574.438 917.77 573.408 917.781C571.954 914.806 580.432 896.747 582.066 892.344Q601.139 839.657 617.245 785.988C606.931 803.992 592.069 828.012 576.685 841.951C573.768 837.944 571.704 833 569.515 828.57C564.354 818.122 559.679 807.339 554.075 797.126C545.093 809.036 538.137 823.209 530.986 836.295C541.894 855.229 547.213 879.211 551.683 900.349C552.704 905.173 554.352 910.699 554.399 915.635C554.41 916.875 554.417 917.063 553.583 917.903C553.372 917.88 553.148 917.906 552.948 917.832C550.322 916.867 549.094 905.978 548.528 903.071C544.836 884.095 537.461 855.503 528.185 838.682L527.822 838.03L512.433 838.519C512.106 858.237 512.471 878.025 512.48 897.75C512.449 902.616 513.508 912.085 512.337 916.344C511.956 917.732 511.469 918.442 510.209 919.104L509.516 918.61C507.443 913.946 508.531 848.1 508.588 838.532C504.106 838.301 499.603 838.403 495.116 838.428C485.245 859.844 479.853 881.899 474.539 904.755C473.767 908.075 472.616 917.269 469.973 918.995C468.849 918.505 468.886 918.356 468.308 917.252C468.069 912.746 470.351 906.946 471.392 902.452C473.931 891.491 476.139 880.269 479.264 869.468C482.658 857.739 487.258 846.464 492.051 835.252C483.126 821.188 475.471 807.169 469.125 791.744C462.541 801.34 457.302 813.464 453.196 824.357C450.786 830.75 448.792 837.261 445.968 843.495C438.293 840.876 410.222 795.577 404.654 786.997Q418.236 828.329 433.062 869.231C435.467 875.953 450.071 912.338 450.062 916.613C449.045 917.326 449.104 917.1 447.947 916.941C446.943 916.186 446.365 915.438 445.827 914.318C444.785 912.15 444.232 909.714 443.329 907.474Q438.013 894.543 433.423 881.336C424.967 857.703 417.009 833.87 408.051 810.422C383.308 832.714 359.88 857.313 337.812 882.238Q329.624 891.33 321.869 900.795C317.175 906.531 311.993 914.094 306.357 918.777C305.118 919.051 305.043 919.203 303.95 918.605C304.702 914.261 341.739 873.701 347.531 867.576C330.568 849.414 306.983 840.918 284.203 832.895C285.451 824.362 294.209 803.38 297.513 794.014L323.277 720.761C327.244 709.395 331.559 698.15 335.232 686.683C301.383 703.648 265.835 717.64 230.177 730.309C201.9 740.357 173.057 748.52 145.154 759.655C134.951 763.728 123.417 768.082 114.563 774.651C108.101 790.841 106.938 818.862 107.899 836.322Q108.601 849.183 110.293 861.951C111.4 870.271 119.331 909.394 116.207 915.358C116.12 915.524 115.994 915.667 115.888 915.821L116.559 916.087L116.182 915.638L115.297 915.798C114.128 914.179 113.977 903.619 113.583 900.653C109.472 869.705 103.66 843.309 105.193 811.534C105.428 806.674 105.794 801.742 106.662 796.95C107.699 791.226 110.441 784.357 109.933 778.599C109.489 778.3 108.989 777.926 108.478 777.752C107.267 777.34 105.844 777.863 104.791 778.47C98.9937 781.813 94.0207 789.878 90.4847 795.342C72.666 822.872 63.5417 855.207 56.3554 886.882C54.472 895.183 53.9825 904.132 51.6364 912.267C51.045 914.318 50.4491 916.059 48.5266 917.141L47.4105 916.597C46.8882 915.853 46.3017 915.104 46.1461 914.182C45.2593 908.926 48.5766 897.384 49.6972 891.992C57.2046 855.872 68.1673 816.061 90.0438 785.706C95.8401 777.663 100.566 772.619 110.694 771.01L110.337 771.35C128.165 755.336 203.929 733.932 230.831 724.22C263.091 712.574 299.339 699.211 329.539 683.216C337.716 678.885 342.385 671.845 348.489 665.154Q362.497 649.732 377.156 634.927C382.212 629.85 387.231 624.147 393.32 620.297L393.993 619.875C393.859 605.899 391.876 591.864 391.333 577.854C368.706 551.57 366.247 534.686 361.858 501.553C358.762 502.159 355.792 502.477 352.653 501.954C348.769 501.307 345.287 499.338 343.117 495.989C338.064 488.194 339.134 475.123 336.197 466.067C333.344 457.272 327.224 449.671 323.574 441.174C316.95 425.755 310.163 389.892 314.085 373.667C315.303 368.627 317.281 364.959 321.732 362.2C314.614 336.186 313.239 300.57 316.557 274.02C317.511 266.384 320.253 259.008 321.069 251.413C321.512 247.286 321.021 242.96 321.045 238.803C321.08 232.637 321.861 226.623 323.044 220.58C328.31 193.686 344.852 164.328 368.004 149.021C378.962 141.775 392.523 138.146 405.513 140.738Q407.642 137.73 410.039 134.93C432.099 108.726 466.183 100.361 498.818 97.7108Z"/>
	<path fill="white" d="M346.454 418.008C348.486 421.409 347.335 426.057 348.713 429.571C349.136 430.651 349.368 430.646 350.381 431.022C352.074 430.535 352.896 429.185 353.954 427.874C355.922 437.923 357.258 449.476 357.078 459.731C352.242 450.903 344.675 443.62 342.573 433.366C341.308 427.195 343.157 423.014 346.454 418.008Z"/>
	<path fill="white" d="M676.222 411.991C679.411 416.476 679.989 423.746 679.566 429.051C678.825 438.346 674.722 444.887 667.801 450.834L666.721 451.609L666.34 450.86C666.988 447.473 667.692 443.981 667.857 440.532C668.038 436.74 667.6 432.674 668.351 428.948C669.543 423.032 673.269 417.176 676.222 411.991Z"/>
	<path fill="white" d="M692.04 366.008C693.564 365.808 695.006 365.747 696.507 366.165C698.84 366.814 700.614 368.428 701.754 370.527C707.852 381.755 701.824 412.597 697.989 424.816C695.617 432.374 692.181 440.196 688.289 447.121C682.607 457.232 674.855 462.557 671.127 474.252C675.193 468.217 679.616 462.806 684.484 457.419C683.348 460.524 682.227 463.637 681.545 466.879C679.684 475.718 679.346 486.968 672.788 493.899C668.872 498.039 664.566 498.693 659.184 498.901C659.626 490.526 663.104 464.132 665.679 456.52C666.152 455.12 666.448 454.813 667.761 454.178C672.589 451.479 676.72 447.317 679.189 442.363C684.941 430.82 682.356 419.582 678.448 408.068C681.294 401.047 686.713 388.102 693.946 384.62C694.731 384.661 695.192 384.466 695.754 385.108C699.331 389.195 694.567 410.926 694.376 416.859L694.357 417.577C696.971 407.963 699.336 397.919 699.313 387.913C699.306 385.114 699.418 381.313 697.315 379.229C696.503 379.005 696.242 378.823 695.389 379.039C686.073 381.395 677.479 403.955 673.004 411.896L672.683 412.456C677.501 397.236 678.995 376.929 692.04 366.008Z"/>
	<path fill="white" d="M324.999 365.454C327.103 365.463 328.555 365.722 330.376 366.818C339.733 372.448 347.571 388.826 350.2 398.99C351.644 404.575 354.582 423.273 351.797 428.037L351.007 428.061C349.828 425.911 351.274 421.049 350.911 418.364C350.62 416.205 335.754 388.469 333.307 384.57C332.283 382.94 331.063 381.261 329.473 380.138C328.32 379.324 326.889 378.862 325.49 379.27C323.665 379.802 322.13 381.648 321.283 383.266C317.985 389.561 321.706 399.682 323.579 406.063C323.281 400.131 321.568 393.643 323.048 387.771C323.494 386.001 324.405 384.057 326.221 383.339C326.963 383.045 327.654 382.994 328.369 383.334C330.486 384.342 331.319 387.044 332.206 389.073Q331.709 389.843 331.244 390.633C325.648 400.14 324.666 412.623 327.351 423.218C328.397 412.088 327.951 401.351 333.364 391.224C335.457 395.136 344.657 409.993 344.761 413.275C344.778 413.81 344.375 414.791 344.234 415.343C340.888 421.573 338.497 426.717 340.131 433.986C341.841 441.593 349.805 456.539 356.326 460.415C357.111 460.882 356.95 460.562 357.121 461.229C358.125 465.142 361.555 493.783 360.438 495.676C358.279 496.793 355.93 496.852 353.549 496.508C350.95 496.132 348.852 494.725 347.475 492.496C343.732 486.438 343.359 472.458 341.137 464.89C339.361 458.841 336.7 453.79 332.807 448.852C339.855 455.429 344.699 461.849 350.025 469.818C347.317 461.838 344.383 456.301 338.373 450.285C335.834 447.743 333.098 445.259 330.934 442.375C322.378 430.969 316.633 390.707 318.94 376.691C319.709 372.023 321.075 368.253 324.999 365.454Z"/>
	<path fill="white" d="M511.395 733.342C512.167 733.349 512.787 733.41 513.481 733.787C525.673 740.409 548.221 779.604 552.177 792.872C543.038 806.104 535.651 820.595 527.482 834.429C522.655 834.872 517.892 834.984 513.051 835.011L496.463 834.574C486.696 820.174 476.469 803.711 471.833 786.807C480.21 770.652 495.824 742.582 511.395 733.342Z"/>
	<path fill="white" d="M393.348 629.442C394.446 631 393.861 636.729 394.402 639.017C395.568 643.957 400.542 649.513 403.678 653.443C431.109 687.817 470.303 708.325 506.673 731.707C502.031 735.334 497.684 739.181 493.904 743.721C486.862 752.177 481.283 762.339 475.724 771.812C469.676 782.117 463.536 792.376 458.297 803.124C452.929 813.918 448.587 825.194 444.607 836.563C429.603 820.83 408.952 789 400.412 769.196C394.355 755.152 389.078 732.385 385.04 717.092C382.561 707.704 379.423 698.216 377.506 688.72C377.036 686.392 376.822 684.185 376.996 681.81C378.196 665.47 387.357 644.573 393.348 629.442Z"/>
	<path fill="white" d="M629.335 631.798C634.272 636.399 638.497 654.309 640.961 661.011C642.803 666.019 646.345 671.507 646.722 676.847C647.488 687.684 642.638 702.135 639.811 712.674C635.304 729.472 630.896 746.658 624.473 762.84C621.775 769.637 618.262 776.101 614.817 782.54C604.347 802.11 592.437 819.281 577.634 835.865C572.48 826.542 567.881 816.798 563.492 807.097C560.578 800.638 557.214 794.336 554.145 787.942C543.122 764.975 534.884 749.961 517.167 731.136C536.166 716.494 556.721 703.667 576.295 689.783C590.046 680.029 606.024 668.972 616.488 655.634C622.094 648.488 625.635 640.02 629.335 631.798Z"/>
	<path fill="white" d="M626.77 583.392C627.511 586.396 624.68 627.962 623.666 632.223C621.592 640.938 616.729 648.91 610.821 655.536C595.31 672.932 565.255 692.394 545.489 705.927C534.104 713.721 522.881 721.941 511.163 729.225C503.178 725.065 495.457 719.693 487.773 714.977C465.106 701.065 438.665 684.105 419.966 665.151C414.373 659.481 409.492 653.293 404.613 647.017C402.301 643.961 400.04 640.978 398.173 637.623C399.671 618.751 397.766 601.818 395.92 583.115C401.899 589.037 407.326 595.695 412.949 601.965C422.315 612.409 432.061 622.804 442.347 632.358C448.151 637.749 454.289 643.178 461.154 647.169C478.323 657.149 501.22 658.523 520.721 657.687C533.856 657.123 547.427 655.133 559.333 649.253C580.679 638.712 609.744 601.873 626.77 583.392Z"/>
	<path fill="white" d="M629.632 624.865C644.31 634.055 661.13 657.421 671.659 671.326C674.926 675.639 678.8 680.028 681.458 684.74C684.926 690.888 687.299 697.686 689.916 704.228C694.982 716.894 699.724 729.647 704.612 742.377L724.896 795.908C729.422 807.953 734.393 820.217 737.915 832.598C720.637 837.472 705.392 843.428 690.026 852.882C684.563 856.593 679.462 860.543 674.588 865.001C667.12 857.681 660.125 849.671 652.911 842.089C641.064 829.639 627.353 815.754 617.035 802.133C620.134 791.052 624.04 780.208 627.594 769.267Q636.62 741.895 644.135 714.07C648.037 699.336 652.3 683.814 651.599 668.449C651.199 659.676 644.888 643.245 639.259 636.582C636.62 633.457 632.991 631.235 630.185 628.295C629.103 627.162 629.513 626.308 629.632 624.865Z"/>
	<path fill="white" d="M386.735 632.425C386.837 633.11 386.819 633.538 386.52 634.174C382.274 643.222 377.117 651.898 374.474 661.638C373.463 665.365 373.424 669.308 373.46 673.141C373.493 676.63 373.416 680.236 373.884 683.695C375 691.938 379.044 704.538 381.211 713.296Q387.123 737.832 393.9 762.143C398.227 777.382 403.097 792.488 407.086 807.818C399.948 814.466 392.569 820.83 385.654 827.734C373.272 840.096 361.582 853.149 349.191 865.509C344.267 860.989 339.107 856.883 333.811 852.816C319.122 842.315 303.999 836.795 287.08 831.314C289.737 822.162 293.086 813.209 296.239 804.221L317.939 743.689L332.563 701.358C334.457 695.98 336.087 688.816 339.112 684.048C342.738 678.332 348.867 672.97 353.506 667.954C364.53 656.035 375.509 644.16 386.735 632.425Z"/>
	<path fill="white" d="M408.011 145.809C413.147 140.234 417.499 134.23 423.302 129.262C445.539 110.226 477.222 104.1 505.683 102.924C554.271 100.915 602.917 115.3 639.006 148.766C660.189 168.411 675.49 193.679 688.917 218.958C692.554 225.805 696.813 233.097 699.07 240.537C700.87 246.472 701.14 253.156 701.35 259.315C702.303 287.339 697.765 336.455 687.679 362.92C685.101 369.685 679.499 374.842 677.068 381.84C672.478 395.047 670.297 409.476 666.554 422.994C664.971 401.282 667.004 379.158 663.287 357.622C659.458 335.431 649.993 317.237 648.285 294.109C657.036 305.345 664.738 317.878 669.409 331.378C671.05 336.121 671.525 342.617 673.872 346.875C672.289 327.004 662.291 306.455 648.231 292.354C647.13 285.806 646.047 279.73 643.491 273.552C651.426 278.366 660.546 283.715 670.232 281.333C677.745 279.485 682.002 273.555 685.993 267.484C680.1 273.297 674.037 279.722 665.081 279.666C655.963 279.61 646.035 273.301 639.467 267.409C649.545 270.247 660.738 271.036 670.205 265.746C674.87 263.139 678.33 259.2 681.773 255.206C670.37 264.082 662.862 268.485 647.896 266.548C636.146 265.028 623.486 258.91 614.028 251.932C628.636 256.026 645.996 259.909 660.135 252.07C664.249 249.789 667.218 246.85 670.217 243.249C659.196 252.076 647.682 255.348 633.533 253.844C616.7 252.054 604.113 243.752 589.596 236.116C570.337 225.985 548.567 219.904 526.714 220.546C525.75 220.631 524.792 220.647 523.825 220.665L524.089 220.061C528.009 218.011 532.512 216.812 536.702 215.407C558.496 210.568 580.729 211.138 601.238 220.434C605.23 222.243 612.544 227.107 616.268 227.717C615.258 225.821 606.023 220.591 603.79 219.39C583.66 208.563 556.907 206.817 535.167 213.472C529.299 215.241 524.007 217.289 519.232 221.229Q511.607 221.706 503.975 221.371C504.422 219.537 504.788 217.683 505.592 215.966C509.094 210.194 514.397 205.727 520.221 202.401C541.759 190.102 565.486 191.693 588.48 198.015C572.519 189.795 554.131 189.243 536.938 193.486C524.126 196.648 510.641 203.297 503.585 214.93C502.512 216.897 501.766 218.823 501.07 220.951C497.48 220.797 493.837 220.507 490.247 220.535C465.858 218.625 441.039 217.938 423.843 197.93C416.997 189.965 410.403 178.911 411.358 168.008C412.19 158.523 419.729 152.201 426.359 146.365L426.35 146.397L425.973 146.17L426.081 146.69L425.323 146.511C417.366 151.111 410.878 156.717 408.566 166.028C407.324 171.028 407.875 175.731 408.93 180.684C405.59 178.814 402.824 178.041 399.008 179.035C393.853 180.377 387.817 185.201 384.232 189.091L384.274 189.454C390.154 185.263 396.699 179.263 404.488 180.603C407.213 181.071 409.39 182.539 410.924 184.829C412.868 187.73 414.363 190.975 416.182 193.963C420.976 201.834 427.415 207.458 434.769 212.832C414.053 217.868 399.229 225.618 386.032 242.914C381.241 249.192 376.937 255.914 371.909 262Q367.406 267.387 362.054 271.932C360.502 273.249 358.304 274.404 357.078 275.984C365.244 275.11 379.227 256.224 384.887 250.202C382.477 257.765 380.369 265.589 379.434 273.489C378.345 282.694 378.266 291.742 375.863 300.794C373.361 310.221 364.292 317.83 360.839 327.825C351.958 353.536 356.93 378.948 355.831 405.323C354.639 398.919 352.968 393.245 350.14 387.36C345.932 378.603 339.274 371.312 338.766 361.258C338.179 349.625 339.608 337.551 342.527 326.287C343.004 324.446 348.071 310.989 347.909 310.479C338.154 324.583 335.248 350.317 337.444 367.121C334.142 364.074 331.35 362.245 327.067 360.716C325.716 352.592 323.921 344.494 322.915 336.323C320.541 317.057 319.211 281.7 324.243 263.331C326.398 269.008 329.422 273.85 333.676 278.209C331.716 270.665 329.266 262.997 328.28 255.264C325.183 230.972 332.271 203.929 344.566 182.887C354.395 166.065 368.801 151.414 388.148 146.422C395.04 144.643 401.001 144.946 408.011 145.809Z"/>
	<path d="M406.476 203.667C407.39 203.603 408.28 203.563 409.196 203.617C415.358 203.979 419.595 207.223 423.539 211.648C418.075 208.068 413.266 205.419 406.444 206.005C392.332 207.218 382.227 217.208 373.543 227.371C370.479 231.082 368.14 235.335 365.154 239.126L364.971 238.903C367.142 233.395 371.063 227.806 374.646 223.138C382.824 212.485 393.067 205.451 406.476 203.667Z"/>
	<path fill="white" d="M437.583 217.121C438.69 216.911 439.86 216.869 440.968 217.102C445.214 217.996 449.384 219.52 453.617 220.533C461.265 222.362 469.313 223.623 477.131 224.453C489.336 225.748 501.649 225.705 513.907 225.427C521.639 225.252 529.451 224.772 537.173 225.331C551.317 226.356 565.766 230.564 578.721 236.234C586.312 239.556 593.746 243.601 600.783 247.972C611.405 254.569 622.238 263.468 634.663 266.338C648.227 284.184 643.571 294.858 647.508 314.924C650.252 328.911 655.975 342.224 658.552 356.321C662.417 377.471 660.83 399.306 661.616 420.7C661.884 428 664.61 435.227 663.933 442.529C663.467 447.549 661.986 452.601 661.164 457.588C658.65 472.835 655.97 487.913 654.674 503.318C653.402 518.427 650.884 533.467 644.76 547.437C642.224 553.222 639.19 558.98 635.669 564.23C622.581 583.741 605.27 601.619 588.708 618.228C582.371 624.584 576.131 631.095 569.273 636.894C561.316 644.051 552.121 648.427 541.751 650.847C520.089 655.904 481.816 655.313 462.509 643.087C447.316 633.467 407.756 590.554 395.496 575.47Q387.65 565.806 381.088 555.228C376.566 547.786 373.612 540.232 371.728 531.752C367.59 513.134 365.396 493.837 363.331 474.903C361.302 456.307 359.387 437.614 358.981 418.897C358.749 408.225 359.469 397.516 359.495 386.836C359.536 370.629 358.817 353.524 362.224 337.585Q362.685 335.459 363.316 333.377Q363.946 331.295 364.743 329.27Q365.539 327.246 366.496 325.292Q367.453 323.338 368.564 321.468C372.554 314.799 377.565 309.167 379.226 301.344C383.161 282.806 380.341 260.462 391.341 243.584C400.973 228.807 421.024 220.548 437.583 217.121Z"/>
	<path d="M537.264 373.517C537.209 375.99 534.014 381.012 533.061 383.568C529.335 393.559 530.168 403.726 531.196 414.115L530.644 414.198C529.694 410.343 528.841 406.476 528.431 402.52C527.207 390.71 529.732 382.677 537.264 373.517Z"/>
	<path d="M482.679 372.329C485.149 374.005 487.501 377.195 489.055 379.737C495.238 389.853 494.096 401.69 491.534 412.74L491.458 412.919L491.225 412.934C491.862 395.053 491.113 388.147 482.679 372.329Z"/>
	<path d="M479.965 460.992C481.238 462.414 475.905 466.686 474.73 468.065C471.174 472.24 470.363 476.075 470.181 481.363C470.741 482.489 471.329 483.677 472.07 484.694C475.805 489.824 481.149 491.17 487.008 492.27L487.341 492.877L486.473 493.666C483.951 493.747 481.598 493.771 479.159 493.045C474.64 491.699 470.515 488.924 468.414 484.586C466.668 480.981 466.782 476.934 468.131 473.222C470.256 467.376 474.546 463.667 479.965 460.992Z"/>
	<path d="M542.13 461.45C544.88 461.84 547.601 464.1 549.475 466.031C552.742 469.396 554.435 474.457 554.308 479.111C554.199 483.082 552.474 486.635 549.553 489.307C545.106 493.375 540.371 493.82 534.67 493.479C533.554 493.088 533.117 493.112 532.34 492.179C536.174 490.879 539.884 491.408 543.792 489.571C546.93 488.096 549.59 485.669 550.704 482.317C554.176 471.869 545.051 468.198 542.446 462.228C542.334 461.972 542.235 461.71 542.13 461.45Z"/>
	<path d="M435.771 361.696C441.49 361.402 447.027 361.822 452.611 363.197C457.321 364.357 466.498 370.23 468.758 374.581C469.247 375.524 469.13 375.72 468.813 376.657C467.85 375.235 466.838 373.909 465.644 372.669C459.287 366.066 447.892 363.787 439.092 363.483C424.663 363.954 416.325 369.995 405.461 378.726C406.461 377.105 407.476 375.504 408.695 374.037C415.982 365.27 424.778 362.691 435.771 361.696Z"/>
	<path d="M577.991 361.674C581.747 361.234 585.941 361.231 589.71 361.647C599.13 362.688 606.566 366.55 612.46 374.009C602.667 367.255 594.881 364.26 582.948 363.89C569.09 364.563 561.084 368.761 551.567 378.638C552.565 377.036 553.602 375.446 554.736 373.937C560.727 365.957 568.456 363.047 577.991 361.674Z"/>
	<path d="M549.829 558.54L550.187 558.767C545.642 564.436 529.694 570.484 522.433 571.982C505.335 575.513 487.331 570.684 472.942 561.161L471.577 560.104C472.816 559.521 487.546 566.091 490.034 566.857C512.424 573.753 529.39 569.239 549.829 558.54Z"/>
	<path d="M482.631 481.639C493.183 479.992 498.382 488.872 507.745 490.765C515.711 492.376 519.863 488.005 526.067 484.244C529.262 482.307 533.944 480.863 537.652 481.964C539.129 482.402 540.002 483.106 540.731 484.481C540.379 485.368 540.147 485.359 539.387 485.879C526.629 483.643 523.263 493.363 511.544 493.555C502.41 493.705 497.072 487.676 488.925 485.409C486.462 484.724 483.492 485.831 480.916 485.475L480.525 484.432C481.01 483.033 481.549 482.578 482.631 481.639Z"/>
	<path d="M545.183 396.31C549.435 385.565 559.655 377.207 570.065 372.657C578.983 368.758 587.686 368.859 596.662 372.441C605.303 375.889 613.109 381.832 620.77 387.04C617.515 388.014 614.516 388.499 611.109 388.637C602.887 397.104 593.614 401.556 581.792 401.774C576.459 401.872 571.147 401.168 566.472 398.427C578.342 400.839 590.618 402.007 601.507 395.595C591.722 398.366 580.921 398.792 570.991 396.46C567.438 395.625 563.754 393.986 560.113 393.834L560.788 395.009C558.092 394.07 555.39 393.301 552.633 392.565C550.15 393.804 547.628 394.999 545.183 396.31Z"/>
	<path fill="white" d="M582.383 374.824C583.289 374.76 584.068 374.843 584.948 375.041C586.485 375.386 588.604 375.931 589.47 377.343L589.229 377.91C588.512 377.272 587.891 376.616 586.944 376.35C585.752 376.016 585.548 376.065 584.541 376.634C584.902 378.04 585.195 379.202 585.089 380.675C584.516 381.674 584.133 382.186 583.17 382.827C582.343 382.63 582.186 382.58 581.802 381.79C581.239 380.635 581.409 379.844 581.758 378.694C582.12 377.498 582.301 376.507 582.366 375.258C582.373 375.114 582.377 374.969 582.383 374.824Z"/>
	<path fill="white" d="M579.138 375.343L579.685 376.053L578.884 378.509C578.599 379.354 578.159 380.321 578.055 381.208C577.9 382.521 578.192 383.665 579.147 384.618C581.121 386.587 584.982 386.606 587.568 386.539C587.775 386.534 587.981 386.519 588.188 386.509L587.899 387.434C586.763 388.239 585.589 389.131 584.18 389.38C582.439 389.687 580.721 388.94 579.45 387.788C577.7 386.203 576.842 383.908 576.732 381.581C576.614 379.069 577.511 377.178 579.138 375.343Z"/>
	<path fill="white" d="M570.297 378.447C570.549 383.067 570.495 386.45 573.958 389.999C576.091 392.184 578.824 393.304 581.871 393.314Q582.535 393.313 583.195 393.246Q583.855 393.178 584.506 393.044Q585.156 392.91 585.789 392.711Q586.422 392.512 587.032 392.251Q587.642 391.989 588.223 391.667Q588.803 391.345 589.349 390.967Q589.894 390.588 590.398 390.156Q590.902 389.724 591.36 389.244C594.512 385.935 595.033 382.72 595.025 378.363C598.155 380.091 603.034 382.128 605.107 385.166C605.683 386.011 606.001 387.163 605.763 388.161C605.208 390.484 603.207 391.509 601.352 392.745C588.371 397.806 578.173 396.509 565.085 393.204C562.091 392.448 558.427 391.192 555.324 391.369C554.283 391.428 554.909 391.474 553.811 391.273C556.351 386.869 565.746 381.456 570.297 378.447Z"/>
	<path d="M457.5 544.008C469.67 537.987 482.231 531.368 496.314 533.08C501.201 533.674 505.85 535.983 510.831 535.718C514.155 535.541 517.513 534.657 520.772 534.004C528.887 532.379 536.597 532.512 544.49 535.23C549.319 536.892 561.937 544.5 565.719 543.77C566.593 542.776 567.476 541.822 568.41 540.885C570.14 540.812 570.97 541.316 572.211 542.52C573.619 543.886 576.249 546.781 576.473 548.802C576.5 549.046 576.462 549.293 576.456 549.539C575.544 550.318 575.028 550.48 573.803 550.34C571.456 550.073 569.599 548.202 567.82 546.776C557.052 546.804 546.161 546.376 535.438 547.536C527.821 548.36 520.303 550.517 512.63 550.703C503.239 550.931 494.016 548.349 484.688 547.645C475.14 546.925 465.573 547.863 456.034 547.407C455.526 547.279 455.018 547.143 454.502 547.047C452.205 546.621 450.627 548.849 448.794 549.917C447.634 550.594 447.049 550.793 445.766 550.442L445.122 549.059C445.195 546.968 446.854 542.867 448.523 541.54C449.164 541.031 449.745 540.583 450.589 540.675C452.077 540.836 453.308 541.803 454.119 543.013C454.683 543.857 454.357 543.642 455.103 544.198C455.761 544.687 456.745 544.174 457.5 544.008Z"/>
	<path fill="white" d="M457.748 544.614C457.899 544.567 458.051 544.521 458.203 544.472C471.786 540.063 479.257 533.628 494.963 535.577C500.339 536.244 505.35 538.483 510.85 538.391C515.446 538.314 519.83 536.407 524.333 535.705C538.77 533.454 551.215 539.121 563.979 544.991C553.759 544.906 543.479 544.22 533.282 545.148C526.444 545.771 519.687 547.668 512.822 547.901C502.851 548.239 492.642 545.625 482.618 545.125C474.094 544.7 465.53 545.973 457.05 545.452L457.748 544.614Z"/>
	<path d="M404.787 384.107C411.902 377.183 428.918 370.033 439.123 370.112C450.178 370.198 460.834 375.978 468.369 383.831C471.071 386.647 473.179 389.84 474.624 393.479L473.828 394.262L474.649 394.75C473.824 394.034 469.085 393.432 467.906 393.528C466.434 393.648 464.954 394.223 463.512 394.303C455.78 399.623 446.052 402.237 436.726 402.314C425.172 402.408 413.903 396.601 405.77 388.668C403.329 388.792 400.969 388.495 398.551 388.22C400.589 386.796 402.708 385.471 404.787 384.107Z"/>
	<path fill="white" d="M436.465 375.493C437.979 375.334 438.79 375.047 440.183 375.713C440.654 376.962 440.86 378.117 441.049 379.426C440.132 380.742 438.925 381.786 437.39 382.281L436.859 381.696C436.85 379.851 437.009 378.138 437.27 376.313L436.465 375.493Z"/>
	<path fill="white" d="M434.595 375.677C434.215 379.102 433.369 383.342 435.733 386.241C436.332 386.976 436.88 387.009 437.737 387.314C440.273 387.054 442.117 385.631 443.654 383.646C444.286 382.829 444.828 381.931 445.366 381.05C445.31 381.367 445.245 381.683 445.197 382.001C444.774 384.805 442.213 385.698 441.6 388.162C442.278 388.525 442.902 388.89 443.551 389.309C442.548 390.427 441.639 391.167 440.083 391.328C437.941 391.549 435.557 390.504 434.03 389.038C432.417 387.49 431.347 385.235 431.326 382.983C431.298 379.996 432.524 377.721 434.595 375.677Z"/>
	<path fill="white" d="M418.961 395.634C420.757 395.759 422.659 396.446 424.435 396.836C429.541 397.958 434.558 398.802 439.803 398.508C446.62 398.126 458.147 393.729 463.512 394.303L463.092 394.428C459.735 395.456 456.546 396.936 453.211 398.034C440.782 402.13 430.699 401.149 418.961 395.634Z"/>
	<path fill="white" d="M425.434 378.926C425.545 383.412 425.468 387.771 428.968 391.135C431.434 393.505 434.922 394.22 438.244 394.011C442.158 393.764 446.264 392.307 448.878 389.264C450.786 387.044 451.802 384.296 451.417 381.368C451.248 380.083 450.887 378.91 450.436 377.701C456.756 382.036 463.531 386.21 469.189 391.385L468.526 391.469C448.482 394.165 439.244 400.582 417.834 393.927C417.058 393.68 416.368 393.378 415.636 393.019C413.429 391.938 410.389 390.621 409.565 388.149C414.774 385.011 420.003 381.664 425.434 378.926Z"/>
	<path d="M412.593 331.159C423.841 330.032 458.593 333.835 469.655 336.835C472.963 337.732 476.352 338.995 479.061 341.14C481.99 343.461 484.14 346.935 484.5 350.698C484.666 352.429 484.393 354.375 483.074 355.636C481.637 357.011 479.604 357.218 477.716 357.004C473.025 356.474 467.971 354.381 463.277 353.376C453.921 351.371 444.592 350.386 435.071 349.582C409.126 348.82 393.798 352.896 373.18 369.188C376.215 362.439 379.396 355.674 383.842 349.721C390.901 340.27 400.745 332.873 412.593 331.159Z"/>
	<path fill="white" d="M462.293 339.365C462.758 339.4 463.225 339.423 463.686 339.489C468.74 340.216 476.277 341.957 479.484 346.281C480.721 347.949 481.631 350.82 481.308 352.85L481.403 352.076L480.913 352.161C480.465 350.566 480.148 349.188 479.088 347.865C479.48 349.498 479.898 352.15 479.163 353.694L478.533 353.336C478.225 352.498 478.124 352.136 477.471 351.498C476.899 352.515 477.287 352.17 476.409 352.637C474.521 349.54 476.416 348.286 475.523 345.999C474.207 342.627 465.4 340.381 462.293 339.365Z"/>
	<path fill="white" d="M418.722 342.681C435.615 340.009 458.818 345.653 474.461 352.362C465.588 350.346 456.545 348.938 447.538 347.678C432.895 345.444 408.813 345.01 395.45 351.424C394.468 351.895 393.669 352.277 392.591 352.512C392.744 352.3 392.866 352.063 393.05 351.878C393.851 351.069 395.562 350.344 396.566 349.764C403.652 345.668 410.625 343.642 418.722 342.681Z"/>
	<path fill="white" d="M418.832 334.71C431.51 333.845 460.489 339.245 472.598 343.925Q473.845 347.473 475.189 350.986C469.22 349.929 463.457 347.508 457.642 345.801C442.936 341.486 428.114 340.083 412.896 341.86C406.448 343.32 400.907 345.69 395.143 348.929C393.422 349.896 389.983 353.126 388.236 353.17L389.497 352.582L389.323 352.065C394.858 347.993 400.708 344.29 406.136 340.1L406.139 339.74C401.096 341.275 391.602 348.831 387.17 352.42Q388.127 351.16 389.148 349.952C397.099 340.601 406.688 335.724 418.832 334.71Z"/>
	<path d="M593.44 330.206C605.045 329.375 617.398 329.892 627.529 336.271C638.855 343.402 644.074 354.116 647.012 366.754C632.43 355.962 619.273 350.383 601.124 349Q596.754 348.672 592.372 348.673Q587.989 348.673 583.619 349.002Q579.249 349.331 574.916 349.987Q570.583 350.643 566.311 351.622C560.398 353.028 554.558 354.998 548.586 356.116C545.799 356.638 541.705 357.194 539.348 355.222C538.429 354.453 537.916 353.387 537.754 352.213C537.296 348.899 539.221 344.418 541.234 341.88C547.189 334.371 583.448 331.193 593.44 330.206Z"/>
	<path fill="white" d="M592.839 341.711C593.141 341.682 593.441 341.64 593.744 341.626C606.865 340.992 624.012 345.717 634.106 354.236C620.69 347.093 605.793 345.428 590.743 345.59C576.741 346.587 563.807 349.264 550.148 352.191L550.426 351.326L550.044 351.505L549.836 352.231L549.083 352.154C551.339 349.874 573.882 343.99 578.256 343.174C582.987 342.292 588.039 342.129 592.839 341.711Z"/>
	<path fill="white" d="M593.868 333.712C599.34 333.092 605.27 333.397 610.669 334.512C623.649 337.192 632.03 344.294 639.101 355.191C633.457 349.608 625.253 342.322 617.044 341.203C620.955 343.755 625.809 345.555 629.144 348.805C628.308 349.225 623.704 346.801 622.665 346.316C617.192 343.759 612.373 342.242 606.451 341.006C588.648 338.241 564.87 343.987 548.387 350.982C548.454 349.2 548.756 346.763 547.642 345.312C545.598 347.834 545.253 352.195 543.568 355.184C543.491 355.321 543.408 355.456 543.328 355.592C543.649 352.468 543.567 348.239 545.745 345.762C551.732 338.957 583.87 334.587 593.868 333.712Z"/>
</svg>
