<?xml version="1.0" encoding="utf-8" ?>
<svg xmlns="http://www.w3.org/2000/svg" xmlns:xlink="http://www.w3.org/1999/xlink" width="1024" height="1024">
	<path fill="white" d="M0 0L1024 0L1024 1024L0 1024L0 0Z"/>
	<path d="M830.237 875.386L830.688 875.902C830.474 880.625 829.253 885.463 828.42 890.117L823.884 915.5C822.701 922.218 821.536 933.995 819.589 939.949C819.154 941.28 818.943 941.247 817.74 941.816L816.878 940.779C816.384 932.726 827.397 885.766 830.237 875.386Z"/>
	<path d="M196.618 871.91C198.288 874.026 199.026 878.727 199.724 881.464C204.632 900.727 208.262 920.849 209.143 940.731L206.751 940.458C205.533 939.031 205.78 935.305 205.623 933.391C204.617 921.148 203.481 908.956 201.377 896.845C199.943 888.588 197.535 880.209 196.618 871.91Z"/>
	<path d="M489.208 83.706C489.636 83.6528 490.066 83.6057 490.497 83.5809C511.147 82.3907 534.193 86.5501 550.068 100.641Q556.297 100.212 562.523 100.688C597.189 103.642 629.611 127.614 651.385 153.524C695.764 206.332 713.731 290.115 723.801 356.995Q726.798 377.048 729.405 397.155C730.334 404.19 730.855 411.651 732.374 418.567C733.695 424.585 738.21 430.635 740.52 436.492C749.142 458.361 753.104 480.747 751.294 504.284C749.028 533.743 735.79 558.382 720.735 583.093C716.076 590.741 708.841 600.093 707.45 609.064C706.718 613.78 706.4 622.115 708.724 626.4C710.268 629.245 716.219 633.889 715.952 636.961C715.775 637.066 715.606 637.188 715.42 637.277C712.935 638.47 707.869 636.518 705.276 635.787C691.777 631.981 682.81 624.774 676.064 612.619C663.343 626.975 646.747 638.264 628.163 643.407C633.844 652.125 648.441 674.778 655.64 680.127C662.436 685.177 678.391 689.431 686.769 692.309C728.614 706.683 771.755 717.733 814.408 729.424C832.95 734.507 852.529 738.073 870.334 745.302C879.576 749.055 888.417 753.732 894.679 761.728C899.461 767.835 902.655 775.035 905.853 782.05C924.051 821.962 933.337 866.507 940.495 909.573C941.614 916.307 944.927 935.25 944.185 941.202C942.835 941.519 941.747 941.342 940.404 941.147C939.702 940.153 939.502 939.053 939.285 937.861C938.149 931.622 937.724 925.163 936.806 918.874C934.616 903.873 932.059 888.749 928.858 873.928C922.096 842.616 913.366 810.65 899.896 781.509C895.068 771.065 890.199 761.789 880.061 755.721C861.625 744.686 835.639 740.629 814.795 735.155C797.306 730.562 779.897 725.588 762.46 720.795Q708.269 706.297 655.554 687.115C655.753 730.764 647.26 768 630.984 808.562C627.115 818.204 623.347 828.277 618.241 837.327C604.333 809.102 584.269 783.657 557.941 765.978C548.054 769.169 538.336 769.965 528.054 770.753C524.916 787.267 523.118 804.416 520.804 821.087C517.754 843.066 514.09 865.091 513.462 887.319C513.296 893.202 514.007 899.162 514.332 905.037C514.697 911.645 514.779 918.283 514.935 924.898C515.036 929.025 516.116 936.337 514.413 940.064C514.073 940.806 513.799 940.7 513.097 940.935C511.226 939.391 511.598 936.885 511.596 934.636C511.553 894.74 506.017 857.522 500.141 818.272C497.782 802.516 495.949 786.657 493.399 770.936C483.473 770.359 473.984 769.344 464.247 767.347C448.085 777.747 428.694 798.843 417.49 814.609C412.633 821.442 408.548 828.694 404.13 835.804C401.366 827.099 396.377 818.866 393.054 810.308C378.306 772.338 362.994 728.754 364.589 687.598C359.117 689.989 353.183 691.52 347.511 693.391Q330.874 699.021 314.09 704.196C285.912 713.031 257.87 722.388 229.162 729.414Q213.337 733.255 197.421 736.698C182.084 739.993 166.838 742.706 152.646 749.775C147.168 752.504 140.665 756.064 136.671 760.81C130.698 767.908 126.5 777.324 122.731 785.744C106.015 823.087 96.211 862.99 88.8766 903.124Q87.0092 913.171 85.5571 923.286C84.7513 929.264 84.5179 935.987 82.6068 941.698C82.3031 941.78 82.0098 941.928 81.6955 941.945C80.3995 942.015 79.894 941.432 79.1126 940.586C77.5445 935.581 80.0866 927.624 80.7567 922.379C86.7777 875.242 101.441 815.342 122.825 773.169C129.307 760.385 135.867 752.482 148.701 745.873C166.941 736.481 188.191 733.491 208.047 729.001Q229.775 724.084 251.245 718.143C272.623 712.285 293.56 705.213 314.609 698.298L362.691 682.754C365.801 676.878 370.983 671.57 375.011 666.253C380.539 658.956 385.564 651.5 390.403 643.73C375.344 634.13 360.651 624.144 348.602 610.819C341.197 621.247 333.445 631.104 321.055 635.815C317.271 637.254 310.337 638.945 306.67 637.035C305.842 636.603 306.135 636.841 305.838 635.808C307.338 633.288 310.447 632.215 312.453 630.121C321.251 620.939 314.362 598.178 308.892 588.768C305.87 583.569 301.672 579.04 297.916 574.365C290.862 565.582 283.898 556.656 278.562 546.691C270.212 531.096 265.522 513.135 264.131 495.539C262.931 480.344 262.555 463.173 268.139 448.825C270.991 441.499 275.593 435.358 279.243 428.461C284.149 419.193 287.384 408.468 289.83 398.283C298.705 361.324 301.211 323.927 307.337 286.569C315.38 237.523 334.742 190.132 367.249 152.13C398.8 115.245 439.655 87.536 489.208 83.706Z"/>
	<path fill="white" d="M484.954 754.919C489.457 755.726 492.712 760.648 496.966 761.845C499.293 762.499 501.873 762.14 503.556 764.06C503.541 764.777 503.738 765.113 503.132 765.623C500.158 768.128 491.233 767.078 487.375 766.951C481.04 766.468 474.887 765.608 468.692 764.183C473.757 760.701 479.198 757.114 484.954 754.919Z"/>
	<path fill="white" d="M536.183 754.398C542.966 756.635 548.347 759.369 553.994 763.775C548.785 765.131 543.363 765.726 538.032 766.405C534.175 766.721 525.442 768.359 522.108 766.417C520.808 765.66 520.738 765.338 520.343 763.986C522.867 761.59 531.711 757.907 536.183 754.398Z"/>
	<path fill="white" d="M647.544 405.368C652.295 414.307 656.312 423.684 661.005 432.686C658.472 437.274 656.133 441.587 652.451 445.357C648.104 447.633 644.853 447.093 640.29 446.038C642.914 432.51 645.026 418.911 647.544 405.368Z"/>
	<path fill="white" d="M368.053 400.301C370.055 405.753 370.558 415.808 371.404 421.756Q373.255 434.898 375.874 447.908C372.233 447.439 369.826 446.368 366.7 444.55C359.725 439.442 356.489 432.148 355.036 423.87C359.638 416.13 364.267 408.483 368.053 400.301Z"/>
	<path fill="white" d="M423.353 298.693C426.673 298.593 430.133 298.905 433.443 299.173C445.257 300.13 468.847 303.359 476.331 312.756C477.603 314.354 478.652 316.854 478.434 318.895L477.918 319.201C471.466 319.127 463.903 316.274 457.636 314.653C434.802 308.984 424.533 302.978 400.919 310.445C401.428 309.264 401.943 308.032 402.724 307C406.995 301.361 416.72 299.436 423.353 298.693Z"/>
	<path fill="white" d="M365.254 448.32C369.071 450.388 372.263 452.032 376.668 452.543C379.246 479.089 387.67 499.102 403.231 520.583C406.372 524.919 409.449 529.9 413.44 533.49C416.64 555.396 418.029 588.647 416.484 610.837C414.063 613.286 411.405 615.516 408.819 617.789C394.592 593.064 390.305 571.633 387.337 543.628C387.084 546.651 387.09 549.593 387.165 552.623C388.934 575.697 394.988 599.319 407.549 618.987L400.579 627.893C389.042 616.785 379.591 604.578 372.759 590.009C355.008 552.152 351.139 487.709 365.254 448.32Z"/>
	<path fill="white" d="M352.221 428.439C355.041 436.85 358.165 441.608 364.366 447.988C355.711 467.133 354.304 487.357 354.407 508.114C354.561 538.967 359.133 572.599 375.257 599.509C382.032 610.818 390.306 620.197 399.619 629.412C397.788 632.533 395.719 635.514 393.703 638.518C379.119 630.74 364.147 620.004 353.083 607.654C351.554 605.771 349.969 603.497 347.88 602.237C345.986 603.317 344.099 607.59 342.874 609.513C337.03 618.686 329.028 627.284 318.61 631.1C328.631 611.541 313.522 586.349 306.287 568.086C301.915 557.05 298.031 545.81 296.926 533.919C293.459 496.614 308.33 478.911 331.573 452.883Q342.15 440.874 352.221 428.439Z"/>
	<path fill="white" d="M603.016 618.25C606.392 620.087 608.643 623.032 610.909 626.051C617.228 634.467 622.136 644.098 627.899 652.919C635.316 664.272 643.719 674.999 651.855 685.84C654.593 734.418 638.52 786.415 618.253 830.02C611.49 817.368 603.017 805.504 593.868 794.48C581.231 778.388 558.03 758.782 538.941 751.935C562.258 733.343 609.854 679.682 613.372 649.37C614.242 641.875 611.999 638.055 607.525 632.427C609.691 639.153 611.332 643.844 611.247 651.099C607.007 640.769 604.58 629.252 603.016 618.25Z"/>
	<path fill="white" d="M415.856 618.385C417.459 625.748 412.699 644.14 411.501 652.373C410.677 646.801 410.538 641.538 410.643 635.925L410.043 635.479C409.607 635.69 408.945 635.977 408.602 636.309C407.006 637.853 407.293 640.72 407.468 642.742C409.784 669.524 439.411 708.86 457.433 728.211C465.367 736.73 473.958 744.436 482.839 751.942C461.463 762.705 443.963 778.567 428.106 796.305C419.482 806.132 411.403 817.131 405.135 828.599C392.945 803.829 383.059 775.301 376.035 748.631C372.931 736.847 363.477 693.215 369.309 683.77C369.445 683.55 369.595 683.338 369.731 683.119C374.785 674.956 381.228 667.691 386.675 659.773C396.268 645.828 403.519 630.296 415.856 618.385Z"/>
	<path fill="white" d="M663.118 437.815C667.604 443.998 671.44 450.87 675.657 457.263C688.214 476.297 706.297 500.738 712.516 522.166C717.383 538.935 715.981 557.191 711.395 573.857C709.07 582.304 706.166 590.564 704.389 599.157C703.075 605.512 701.939 612.222 702.602 618.731C703.055 623.177 704.423 626.846 706.098 630.958Q704.645 630.644 703.218 630.225Q701.791 629.806 700.399 629.284Q699.007 628.762 697.656 628.139Q696.306 627.516 695.005 626.797Q693.703 626.077 692.458 625.264Q691.213 624.451 690.031 623.55Q688.848 622.648 687.735 621.662Q686.621 620.677 685.583 619.612C678.479 612.31 677.177 604.632 677.376 594.798L676.897 594.81C675.285 598.895 676.489 602.648 674.09 606.803C666.074 620.682 646.481 632.188 631.371 636.191C650.933 619.846 661.149 590.285 665.614 565.767Q666.387 561.331 666.909 556.859Q667.431 552.387 667.701 547.892Q667.971 543.398 667.987 538.895Q668.004 534.392 667.767 529.896Q667.531 525.4 667.042 520.924Q666.553 516.448 665.813 512.006Q665.073 507.565 664.084 503.172Q663.096 498.779 661.862 494.449C660.991 491.289 659.986 485.9 658.177 483.274C658.417 489.878 661.041 496.301 662.397 502.729C664.228 511.404 665.218 520.19 665.918 529.018C666.241 537.858 666.274 546.597 665.284 555.409C661.799 586.437 650.014 618.433 625.079 638.408C627.126 631.449 628.672 624.846 628.981 617.575C629.82 597.817 625.861 577.598 622.136 558.294C620.49 549.767 619.164 540.782 615.731 532.763L615.069 532.606C615.05 537.143 618.47 548.549 619.602 553.855C624.715 577.825 631.052 611.19 623.581 634.916C617.676 626.471 612.519 616.71 602.619 612.558C599.801 597.392 602.066 577.599 603.072 562.129C603.703 552.43 604.02 542.458 605.549 532.862C629.349 504.15 633.183 485.671 639.544 450.301C643.316 451.269 647.154 451.953 650.964 450.783C657.114 448.896 660.168 443.022 663.118 437.815Z"/>
	<path fill="white" d="M600.327 537.905C601.595 543.734 599.242 558.168 598.766 564.948C596.042 603.773 596.156 621.221 608.639 658.472C597.493 688.509 555.172 737.6 528.339 755.235C524.524 757.742 521.213 757.118 518.151 758.891C517.015 759.548 516.338 761.14 516.029 762.398C515.621 764.06 515.768 765.664 516.738 767.108C518.673 769.986 521.52 770.661 524.728 771.231C521.784 784.681 520.259 798.361 518.422 811.994L510.876 869.817C510.223 858.457 507.967 847.013 506.348 835.752Q501.635 803.481 497.458 771.136C499.77 770.751 502.479 770.608 504.423 769.187C506.151 767.923 508.467 765.612 508.523 763.312C508.552 762.138 508.096 761.42 507.242 760.678C505.805 759.43 504.135 759.346 502.335 759.413Q500.902 759.05 499.519 758.527C494.747 756.749 490.335 753.331 486.323 750.272C463.736 733.055 443.577 708.586 428.547 684.59C422.815 675.439 418.214 665.754 413.596 656.009C415.571 646.421 418.158 637.057 419.436 627.32C423.043 599.844 420.793 566.324 417.982 538.581C432.966 553.952 456.361 577.676 477.083 584.52C481.813 586.082 486.601 586.537 491.556 586.685C499.739 586.928 507.976 586.715 516.163 586.63C539.778 586.386 547.107 582.915 565.464 568.422C577.664 558.79 589.038 548.569 600.327 537.905Z"/>
	<path fill="white" d="M552.911 106.1C577.745 105.077 603.948 117.172 622.981 132.516C685.23 182.7 706.277 277.228 717.838 352.534C720.532 370.084 723.342 387.724 725.22 405.38C711.927 384.86 699.836 358.056 693.359 334.424C688.122 315.315 684.482 295.776 678.899 276.757C668.516 241.382 652.315 206.424 629.364 177.421C614.222 158.286 593.21 142.143 568.301 139.252C575.953 142.732 584.098 144.793 591.74 148.481C631.232 167.538 657.31 222.218 671.263 261.871C682.119 292.776 686.615 325.411 697.977 356.092C711.553 392.754 736.267 424.606 744.049 463.566Q744.573 466.178 744.997 468.807Q745.421 471.436 745.746 474.08Q746.071 476.724 746.296 479.378Q746.52 482.031 746.644 484.692Q746.769 487.353 746.792 490.016Q746.816 492.679 746.739 495.342Q746.662 498.004 746.484 500.662Q746.306 503.319 746.029 505.968Q745.751 508.617 745.373 511.254Q744.995 513.89 744.518 516.51Q744.041 519.131 743.465 521.731Q742.889 524.332 742.215 526.909Q741.541 529.486 740.771 532.035Q740 534.585 739.134 537.103Q738.267 539.622 737.306 542.106Q736.345 544.59 735.291 547.036C731.608 555.397 726.837 563.376 722.271 571.275C717.905 578.826 713.568 586.433 708.724 593.69C715.322 571.573 721.731 548.965 716.243 525.802C709.76 498.442 690.837 474.163 675.908 450.793C666.497 436.059 657.418 420.441 650.783 404.241C641.804 382.322 634.822 360.412 630.91 337.023C627.159 314.591 626.439 292.468 618.293 270.917C607.257 241.721 591.522 211.764 570.072 188.819C565.826 184.276 560.979 179.185 555.227 176.596C556.844 166.801 561.336 130.385 559.912 122.228C558.886 116.347 555.801 111.222 552.911 106.1Z"/>
	<path fill="white" d="M491.298 89.2132C496.539 88.7656 501.969 89.0083 507.194 89.5677C522.835 91.2424 540.14 96.6546 550.267 109.463C553.742 113.858 556.46 119.206 557.412 124.757C559.155 134.918 554.12 165.157 552.695 177.136C547.439 178.635 542.187 180.009 536.724 180.479C522.306 181.719 510.293 179.908 496.329 185.698C451.231 204.395 408.017 280.443 391.148 324.526C380.393 352.632 374.018 382.72 359.098 409.125Q354.297 417.776 348.675 425.917Q343.052 434.059 336.662 441.612C322.791 458.107 307.612 471.65 299.287 492.17C287.444 521.357 293.66 547.158 305.409 574.933C291.615 559.172 280.996 542.689 274.836 522.466C268.741 502.459 265.77 473.108 272.39 452.891C279.651 430.716 299.122 414.605 312.972 396.515C322.226 384.427 330.034 371.475 337.156 358.03C350.054 333.68 357.381 308.107 366.139 282.145C373.984 258.894 382.956 235.972 394.442 214.264C414.213 178.927 441.22 148.04 480.155 133.649C497.93 127.079 516.463 125.085 534.418 132C538.244 133.473 541.749 135.738 545.476 137.457C544.418 136.024 542.801 134.947 541.358 133.916C528.716 124.879 510.891 124.424 496.119 126.983C477.806 130.157 461.002 138.982 446.032 149.795C403.137 180.778 380.818 231.469 364.437 280.16C357.119 301.911 350.813 324.173 341.072 345Q337.694 352.299 333.898 359.391Q330.103 366.482 325.903 373.341Q321.703 380.201 317.112 386.805Q312.522 393.41 307.556 399.737C301.655 407.137 294.589 413.876 289.188 421.61L288.768 422.219C292.587 409.179 296.524 396.692 299.194 383.314C304.297 357.741 306.575 331.808 310.067 306.012C318.459 244.006 335.801 195.035 378.152 147.851C407.217 115.471 447.187 91.5729 491.298 89.2132Z"/>
	<path fill="white" d="M554.631 180.819C555.263 180.987 554.902 180.851 555.742 181.428C581.706 199.266 609.581 252.892 618.299 282.451C621.948 294.823 623.197 307.51 625.536 320.143Q623.355 318.063 621.043 316.13C617.36 313.068 613.514 310.141 608.77 308.971C592.241 304.893 556.968 318.143 537.883 319.902C538.38 317.516 538.947 315.364 540.474 313.402C547.04 304.958 562.677 303.021 572.758 301.547C592.716 298.628 605.905 300.906 622.27 312.999C618.196 307.133 613.204 303.164 606.745 300.056C591.895 292.912 563.884 297.46 548.75 303.088C543.504 305.039 538.491 308 536.182 313.334C534.862 316.384 533.496 320.323 534.725 323.579C538.729 326.413 568.202 317.04 574.832 315.58C582.369 313.922 590.477 312.159 598.198 312.088C608.158 311.997 618.223 316.832 625.168 323.829L625.67 324.343C627.083 329.932 627.67 335.801 628.608 341.49Q630.595 353.422 633.548 365.152C636.388 376.253 644.364 391.937 643.568 402.51C642.523 416.408 638.793 430.256 636.427 443.985C626.044 504.241 619.308 517.311 571.776 557.907C560.505 567.351 548.166 578.816 533.288 581.592C523.14 583.485 490.979 584.076 481.265 581.511C474.503 579.726 467.954 576 462.219 572.078C429.186 549.489 395.06 512.774 384.311 473.764C377.246 448.126 375.301 420.933 370.5 394.825C375.272 383.033 379.688 371.334 383.522 359.195C387.059 347.995 391.404 330.066 396.821 320.386C399.945 314.803 404.833 312.462 410.872 311.186C417.931 309.695 425.405 309.999 432.482 311.205C443.793 313.132 454.998 317.183 465.955 320.573C469.646 321.715 473.448 323.149 477.234 323.909C478.397 324.143 479.603 324.175 480.741 323.793C481.609 323.502 482.512 322.839 482.86 321.974C483.649 320.013 482.801 317.661 482.031 315.814C479.851 310.579 474.937 304.945 469.491 302.844C456.929 297.998 431.14 293.398 418.174 295.747C413.633 296.569 409.436 298.651 405.233 300.493C411.188 289.859 416.773 279.117 423.131 268.697C441.352 238.833 471.256 194.28 507.566 186.196C517.192 184.053 526.538 184.954 536.241 184.295C542.463 183.872 548.586 182.277 554.631 180.819Z"/>
	<path d="M487.417 344.426C488.56 344.939 489.166 345.591 489.866 346.6C494.738 353.612 495.843 364.939 494.365 373.182L493.999 373.235C492.102 371.099 492.537 364.62 492.008 361.598C490.979 355.713 488.508 350.246 487.417 344.426Z"/>
	<path d="M530.527 343.813C531.64 346.158 527.184 357.895 526.652 361.337C526.016 365.444 526.265 369.65 525.695 373.77L524.903 374.147Q524.305 371.973 523.92 369.752C522.531 361.391 525.603 350.59 530.527 343.813Z"/>
	<path d="M536.807 429.278C538.037 430.41 538.754 431.977 539.507 433.446C542.188 438.678 543.81 445.042 541.807 450.805C540.375 454.926 538.106 456.785 534.237 458.55L533.408 458.458L533.184 458.029C548.905 445.368 534.301 439.929 536.807 429.278Z"/>
	<path d="M481.17 429.274C483.343 431.206 478.366 440.594 478.718 444.602C479.404 452.424 487.605 453.949 488.351 458.015L487.697 458.488C485.974 457.651 484.237 456.69 482.682 455.568C479.06 452.954 476.222 449.261 475.68 444.728C475.01 439.126 477.695 433.51 481.17 429.274Z"/>
	<path d="M574.17 330.206C585.538 329.978 597.216 334.219 606.271 341.016C597.816 337.662 589.68 334.869 580.618 333.663C567.94 332.683 559.377 336.001 549.365 343.739C550.304 342.398 551.245 341.032 552.332 339.804C558.05 333.346 565.821 330.826 574.17 330.206Z"/>
	<path d="M436.793 330.185C440.081 329.608 443.971 329.651 447.296 329.963C457.657 330.937 464.261 336.039 470.75 343.819C462.726 338.538 455.737 334.425 446.217 332.611C430.749 332.03 423.012 335.631 409.097 341.294C417.622 334.818 426.187 331.478 436.793 330.185Z"/>
	<path d="M544.759 507.972L545.069 508.171L545.04 508.997C539.791 515.71 530.372 519.221 522.237 520.853C503.608 524.59 493.461 521.921 478.15 511.871C477.024 511.252 476.233 510.727 475.304 509.813C476.977 509.773 480.399 512.077 482.068 512.827C486.927 515.012 491.928 516.836 497.222 517.593C513.816 519.965 531.053 518.15 544.759 507.972Z"/>
	<path d="M489.055 446.094C495.26 447.929 498.761 455.287 505.249 457.233C514.187 459.915 520.249 449.961 527.18 446.381C527.345 446.296 527.512 446.216 527.678 446.134C529.663 447.883 531.305 449.693 532.982 451.727C532.513 452.636 532.092 453.095 531.392 453.822C529.146 454.663 526.645 454.097 524.308 453.843C522.124 455.039 520.14 456.687 518.011 458.001C513.31 460.9 509.544 461.322 504.235 459.949C501.828 459.326 488.47 454.194 487.727 452.413C486.93 450.502 488.338 447.902 489.055 446.094Z"/>
	<path d="M491.952 486.133C498.488 485.842 504.056 488.183 510.168 490.034C513.689 489.132 517.105 487.794 520.727 487.309C529.162 486.177 541.036 492.742 550.273 494.776C552.989 493.87 556.059 492.568 558.877 492.194C560.781 491.942 562.021 492.271 563.563 493.473C564.141 494.765 564.206 494.693 563.746 496.018C560.699 498.517 557.568 495.741 553.983 496.438C550.317 497.151 547.132 499.92 543.291 500.575C537.384 501.582 531.222 499.905 525.248 500.648C519.898 501.313 514.676 503.945 509.222 503.85C505.465 503.785 499.889 501.232 495.54 500.669C488.275 499.729 480.841 500.479 473.601 499.503C468.476 498.813 464.659 494.66 459.565 494.165C457.903 494.859 457.01 495.001 455.209 494.927C455.106 494.414 454.949 493.762 454.963 493.242C454.997 492.056 455.681 491.337 456.467 490.556C460.066 489.629 466.325 493.48 470.333 494.309C483.443 497.022 496.302 496.303 509.329 500.374C515.676 498.46 522.223 497.027 528.872 496.816C535.412 496.61 541.791 498.278 548.09 495.987C539.535 493.985 530.363 488.989 521.604 489.05C517.509 489.079 513.906 491.737 509.667 491.511C506.152 491.324 502.608 489.35 499.148 488.644C491.026 486.986 481.847 490.266 473.944 492.082C478.949 488.649 486.027 487.075 491.952 486.133Z"/>
	<path d="M540.072 364.588C547.112 353.525 555.37 342.165 568.91 339.049C580.515 336.378 594.593 341.465 605.598 344.833C607.793 345.505 611.289 346.077 613.122 347.382C613.286 347.498 613.423 347.647 613.574 347.779L613.464 348.566C611.4 348.261 609.483 348.002 607.388 348.093C611.237 349.677 615.086 348.867 616.419 349.593L616.756 350.676C616.052 351.842 614.981 352.416 613.692 352.791C611.262 353.497 608.83 351.702 607.33 353.919C604.435 358.196 600.807 360.172 596.492 362.802C595.551 363.375 595.681 362.978 595.684 363.755L597.427 363.71C594.21 367.177 585.251 367.715 580.705 367.863C572.474 368.132 553.844 365.485 547.642 360.112C547.542 360.026 547.45 359.931 547.355 359.84C544.987 361.541 542.677 363.26 540.072 364.588Z"/>
	<path fill="white" d="M567.76 346.691C568.216 346.726 569.121 346.771 569.537 346.92C570.658 347.32 570.868 348.162 571.289 349.139C571.088 350.476 570.895 350.939 569.943 351.904C568.323 351.737 567.453 351.845 566.129 350.859C566.06 349.272 567.004 348.023 567.76 346.691Z"/>
	<path fill="white" d="M576.97 345.299C578.662 345.757 580.14 346.387 581.691 347.201C581.859 347.289 582.024 347.382 582.19 347.473L582.52 346.184L583.454 346.644C584.49 348.484 584.426 349.948 583.934 351.962C583.173 355.078 581.398 358.361 578.514 359.976C575.615 361.601 572.655 360.748 569.639 359.897C569.818 358.644 569.867 359.26 569.49 358.052L568.233 358.422C567.073 357.904 566.925 357.486 566.184 356.479C566.021 354.996 566.147 354.198 566.569 352.809C568.953 351.474 573.045 356.729 576.486 356.703C578.742 355.455 579.125 353.286 579.813 350.899C578.962 350.606 578.65 350.466 577.966 349.962C577.91 349.196 577.945 348.686 578.111 347.919C578.165 347.674 578.229 347.431 578.288 347.188L576.97 345.299Z"/>
	<path fill="white" d="M588.74 347.16C594.147 348.035 598.252 350.128 602.589 353.367C599.905 356.369 597.325 358.947 593.99 361.224C590.54 362.792 587.237 363.195 583.51 363.32C588.161 357.981 589.08 354.052 588.74 347.16Z"/>
	<path fill="white" d="M560.534 347.998C560.577 353.509 561.833 357.102 564.371 362.014C570.173 365.037 575.92 365.336 582.265 364.153C582.48 364.113 582.695 364.069 582.911 364.032C585.404 363.605 588.381 363.741 590.885 364.028C572.656 367.015 565.304 365.626 547.355 359.84C551.563 355.582 555.577 351.411 560.534 347.998Z"/>
	<path d="M432.294 337.662C437.977 336.715 444.523 337.137 450.034 338.836C460.45 342.048 472.548 353.514 477.572 363.025L476.894 363.359C474.977 362.771 473.511 361.964 471.811 360.908L472.316 361.1Q469.321 362.356 466.271 363.471C451.596 368.805 434.716 370.553 420.257 363.758C419.274 364.371 418.287 365.023 417.259 365.559C416.165 366.129 415.706 366.337 414.479 365.975L414.334 364.641C414.997 363.562 415.225 363.082 416.356 362.443C417.223 361.952 417.376 361.858 417.846 360.999C414.666 358.142 411.343 358.405 409.655 354.016L409.424 353.402C408.281 352.734 405.641 353.75 404.197 353.823C402.004 353.933 398.437 353.096 396.79 351.651C397.776 350.214 398.931 350.628 400.506 350.809C405.671 351.403 409.524 349.521 414.437 348.125C409.514 348.227 404.702 348.273 399.793 347.813C403.69 346.798 407.748 346.417 411.676 345.506C420.679 343.417 429.569 341.022 438.639 339.204Q435.705 338.873 432.752 338.935Q429.8 338.997 426.882 339.452C424.283 339.878 420.665 341.311 418.127 340.953L418.516 340.407L418.76 340.593L419.015 341.32L420.19 339.858L419.721 339.992C423.898 339.095 428.08 338.353 432.294 337.662Z"/>
	<path fill="white" d="M438.405 355.278C437.87 355.417 437.339 355.41 436.789 355.438C436.21 355.02 436.03 354.927 435.502 354.351C434.603 353.371 434.037 351.87 434.215 350.562C434.434 348.948 435.519 346.995 436.946 346.199C437.614 345.826 437.805 346.058 438.483 346.246C439.588 347.817 438.97 348.977 439.711 350.451C439.908 350.842 440.177 351.193 440.403 351.568L439.213 353.614L438.405 355.278Z"/>
	<path fill="white" d="M446.734 355.473C447.956 351.539 443.64 349.903 449.113 346.538C450.57 346.492 450.547 346.505 451.699 347.404C452.156 348.921 452.306 349.62 451.485 351.099C451.212 351.591 450.903 352.067 450.6 352.541C450.628 353.821 451.012 354.291 451.773 355.293L449.302 354.868C449.995 355.475 450.687 356.061 451.332 356.719L450.656 357.719C449.313 357.017 447.977 356.347 446.734 355.473Z"/>
	<path fill="#D2D0D0" d="M438.405 355.278L439.213 353.614C440.677 354.84 441.964 356.233 443.944 356.417C444.886 356.117 445.809 355.821 446.734 355.473C447.977 356.347 449.313 357.017 450.656 357.719C449.854 358.478 449.065 359.187 448.184 359.852C447.272 359.531 447.552 359.7 446.836 359.214C446.683 359.11 446.534 358.998 446.384 358.891L446.551 360.751L446.261 360.998L444.319 359.535L444.199 360.896L443.325 361.475C443.108 360.696 443 360.478 442.488 359.798L441.525 361.074L440.797 360.979C440.45 360.187 440.271 359.809 439.663 359.168L439.291 360.834L438.51 360.982C437.985 360.669 437.26 360.295 436.812 359.856C435.701 358.767 433.241 355.056 433.167 353.616Q434.775 355.135 436.366 356.673C437.75 356.69 437.864 356.509 439.021 355.71L438.405 355.278Z"/>
	<path fill="white" d="M427.789 347.49L428.407 347.496C429.367 348.33 429.004 351.161 429.143 352.529C429.549 356.522 431.306 359.662 433.267 363.06C434.976 363.7 436.655 364.159 438.458 364.463C443.047 365.237 448.029 365.072 451.894 362.17C456.297 358.864 457.281 354.17 457.875 349.04C459.277 349.858 460.606 350.751 461.902 351.727C464.402 353.61 468.83 356.691 469.288 359.874L468.376 360.804C459.747 363.573 448.662 366.772 439.596 366.001C433.429 365.476 418.248 361.444 414.779 355.957C414.367 355.306 414.194 354.684 414.498 353.977C416.023 350.437 424.25 348.642 427.789 347.49Z"/>
</svg>
