<svg width="24" height="24" viewBox="0 0 24 24" fill="none" xmlns="http://www.w3.org/2000/svg">
<path fill-rule="evenodd" clip-rule="evenodd" d="M3 5H5L7.28552 15.458C7.37174 15.7783 7.66739 16 8 16L17.8667 15.9448C18.1623 15.9448 18.421 15.7723 18.5442 15.5013L21.4785 7.85842C21.7299 7.2035 21.2464 6.5 20.5449 6.5H11C10.5935 6.5 10.0073 7.04732 10.0073 7.53478C10.0073 8.02225 10.5935 8.5 11 8.5H19L17 14H9L6.71448 3.54204C6.62826 3.22174 6.33261 3 6 3L3 3.01004C2.59348 3.01004 2 3.5117 2 4C2 4.4883 2.59348 5 3 5ZM7.88839 21.1434C8.8123 21.1434 9.56374 20.392 9.56374 19.468C9.56374 18.5441 8.8123 17.7927 7.88839 17.7927C6.96448 17.7927 6.21304 18.5441 6.21304 19.468C6.21304 20.3919 6.96448 21.1434 7.88839 21.1434ZM17.79 21.3545H17.6669C16.7922 21.3545 16.0654 20.6646 16.0038 19.79C15.9422 18.8784 16.6321 18.0654 17.556 18.0038C18.4799 17.9422 19.2806 18.6443 19.3422 19.5559C19.3669 20.0117 19.2313 20.4429 18.9357 20.7755C18.64 21.1205 18.2335 21.3175 17.79 21.3545Z" fill="#CBCFD1"/>
</svg>
