<svg width="113" height="77" viewBox="0 0 113 77" fill="none" xmlns="http://www.w3.org/2000/svg">
<path d="M38.1416 42.194V34.3637H41.9235V48.0001H38.2924V45.5232H38.1505C37.8427 46.3222 37.3308 46.9644 36.6146 47.4497C35.9044 47.935 35.0373 48.1777 34.0134 48.1777C33.1019 48.1777 32.3 47.9705 31.6075 47.5562C30.915 47.1419 30.3735 46.553 29.9829 45.7895C29.5982 45.026 29.4028 44.1116 29.3969 43.0463V34.3637H33.1789V42.3715C33.1848 43.1765 33.4008 43.8127 33.827 44.2803C34.2531 44.7479 34.8242 44.9816 35.5404 44.9816C35.9961 44.9816 36.4223 44.8781 36.8188 44.6709C37.2153 44.4578 37.5348 44.1442 37.7775 43.7299C38.0261 43.3156 38.1475 42.8036 38.1416 42.194ZM47.4487 48.0001V34.3637H51.0531V36.7696H51.2128C51.4969 35.9706 51.9705 35.3403 52.6333 34.8787C53.2962 34.417 54.0893 34.1862 55.0126 34.1862C55.9477 34.1862 56.7438 34.42 57.4007 34.8875C58.0577 35.3492 58.4956 35.9765 58.7146 36.7696H58.8567C59.1349 35.9884 59.6379 35.364 60.3658 34.8964C61.0997 34.4229 61.9669 34.1862 62.9672 34.1862C64.2396 34.1862 65.2723 34.5916 66.0654 35.4024C66.8644 36.2074 67.264 37.3496 67.264 38.8293V48.0001H63.4908V39.575C63.4908 38.8175 63.2896 38.2493 62.8872 37.8705C62.4847 37.4917 61.9816 37.3023 61.3779 37.3023C60.6914 37.3023 60.1557 37.5213 59.771 37.9593C59.3863 38.3913 59.194 38.9625 59.194 39.6727V48.0001H55.5275V39.4951C55.5275 38.8263 55.3352 38.2937 54.9505 37.8971C54.5717 37.5006 54.0716 37.3023 53.4501 37.3023C53.0299 37.3023 52.6511 37.4088 52.3137 37.6219C51.9823 37.8291 51.7189 38.122 51.5236 38.5008C51.3283 38.8737 51.2305 39.3117 51.2305 39.8147V48.0001H47.4487ZM78.9125 48.2664C77.5335 48.2664 76.341 47.9735 75.3349 47.3875C74.3346 46.7957 73.5622 45.973 73.0177 44.9195C72.4731 43.8601 72.2009 42.632 72.2009 41.2352C72.2009 39.8266 72.4731 38.5955 73.0177 37.542C73.5622 36.4826 74.3346 35.6599 75.3349 35.074C76.341 34.4821 77.5335 34.1862 78.9125 34.1862C80.2916 34.1862 81.4812 34.4821 82.4814 35.074C83.4876 35.6599 84.263 36.4826 84.8075 37.542C85.352 38.5955 85.6242 39.8266 85.6242 41.2352C85.6242 42.632 85.352 43.8601 84.8075 44.9195C84.263 45.973 83.4876 46.7957 82.4814 47.3875C81.4812 47.9735 80.2916 48.2664 78.9125 48.2664ZM78.9303 45.3367C79.5577 45.3367 80.0816 45.1592 80.5018 44.8041C80.922 44.443 81.2385 43.9518 81.4516 43.3304C81.6706 42.7089 81.7801 42.0016 81.7801 41.2086C81.7801 40.4155 81.6706 39.7082 81.4516 39.0867C81.2385 38.4653 80.922 37.9741 80.5018 37.613C80.0816 37.252 79.5577 37.0715 78.9303 37.0715C78.297 37.0715 77.7643 37.252 77.3323 37.613C76.9062 37.9741 76.5837 38.4653 76.3647 39.0867C76.1516 39.7082 76.045 40.4155 76.045 41.2086C76.045 42.0016 76.1516 42.7089 76.3647 43.3304C76.5837 43.9518 76.9062 44.443 77.3323 44.8041C77.7643 45.1592 78.297 45.3367 78.9303 45.3367ZM101.929 38.2522L98.4669 38.4653C98.4077 38.1694 98.2804 37.903 98.0851 37.6663C97.8898 37.4236 97.6325 37.2313 97.3129 37.0892C96.9992 36.9413 96.6232 36.8673 96.1853 36.8673C95.5993 36.8673 95.1051 36.9916 94.7027 37.2402C94.3002 37.4828 94.099 37.8083 94.099 38.2167C94.099 38.5422 94.2293 38.8175 94.4897 39.0424C94.7501 39.2673 95.1969 39.4478 95.8302 39.5839L98.2982 40.0811C99.624 40.3533 100.612 40.7913 101.263 41.395C101.915 41.9987 102.24 42.7918 102.24 43.7742C102.24 44.668 101.977 45.4522 101.45 46.1269C100.929 46.8016 100.213 47.3283 99.3015 47.7071C98.396 48.08 97.3513 48.2664 96.1676 48.2664C94.3625 48.2664 92.9241 47.8906 91.8529 47.1389C90.7875 46.3814 90.1631 45.3515 89.9797 44.0495L93.6996 43.8541C93.812 44.4046 94.0843 44.8248 94.5163 45.1148C94.9484 45.3989 95.5018 45.5409 96.1765 45.5409C96.8394 45.5409 97.3719 45.4137 97.7744 45.1592C98.1828 44.8988 98.39 44.5644 98.396 44.156C98.39 43.8127 98.2449 43.5316 97.9608 43.3126C97.6767 43.0877 97.2389 42.9161 96.647 42.7977L94.2854 42.3272C92.9537 42.0608 91.9625 41.5992 91.3114 40.9422C90.6663 40.2853 90.3438 39.4478 90.3438 38.4298C90.3438 37.5538 90.5805 36.7992 91.054 36.1659C91.5334 35.5327 92.205 35.0444 93.0691 34.7011C93.9392 34.3578 94.9573 34.1862 96.1232 34.1862C97.8455 34.1862 99.2008 34.5502 100.189 35.2782C101.184 36.0061 101.764 36.9975 101.929 38.2522Z" fill="black"/>
<path d="M2.45837 57V20.6364H11.2475V49.8622H26.3753V57H2.45837Z" fill="#0055FF"/>
</svg>
