<svg width="113" height="77" viewBox="0 0 113 77" fill="none" xmlns="http://www.w3.org/2000/svg">
<path d="M38.1416 42.1939V34.3636H41.9236V48H38.2925V45.5231H38.1505C37.8427 46.3221 37.3308 46.9643 36.6146 47.4496C35.9044 47.9349 35.0373 48.1776 34.0134 48.1776C33.1019 48.1776 32.3 47.9704 31.6075 47.5561C30.915 47.1418 30.3735 46.5529 29.9829 45.7894C29.5982 45.0259 29.4028 44.1115 29.3969 43.0462V34.3636H33.1789V42.3714C33.1848 43.1764 33.4008 43.8126 33.827 44.2802C34.2531 44.7478 34.8242 44.9815 35.5404 44.9815C35.9961 44.9815 36.4223 44.878 36.8188 44.6708C37.2153 44.4577 37.5349 44.1441 37.7776 43.7298C38.0262 43.3155 38.1475 42.8035 38.1416 42.1939ZM47.4487 48V34.3636H51.0531V36.7695H51.2129C51.497 35.9705 51.9705 35.3402 52.6333 34.8786C53.2962 34.4169 54.0893 34.1861 55.0126 34.1861C55.9477 34.1861 56.7438 34.4199 57.4007 34.8874C58.0577 35.3491 58.4957 35.9764 58.7147 36.7695H58.8567C59.1349 35.9883 59.638 35.3639 60.3659 34.8963C61.0998 34.4228 61.9669 34.1861 62.9672 34.1861C64.2396 34.1861 65.2724 34.5915 66.0655 35.4023C66.8645 36.2073 67.264 37.3495 67.264 38.8292V48H63.4909V39.5749C63.4909 38.8174 63.2897 38.2492 62.8873 37.8704C62.4848 37.4916 61.9817 37.3022 61.378 37.3022C60.6915 37.3022 60.1558 37.5212 59.7711 37.9592C59.3864 38.3912 59.1941 38.9624 59.1941 39.6726V48H55.5275V39.495C55.5275 38.8262 55.3352 38.2936 54.9505 37.897C54.5717 37.5005 54.0716 37.3022 53.4501 37.3022C53.0299 37.3022 52.6511 37.4087 52.3137 37.6218C51.9823 37.829 51.7189 38.1219 51.5236 38.5007C51.3283 38.8736 51.2306 39.3116 51.2306 39.8146V48H47.4487ZM78.9126 48.2663C77.5336 48.2663 76.341 47.9734 75.3349 47.3874C74.3346 46.7956 73.5623 45.9729 73.0178 44.9194C72.4732 43.86 72.201 42.6319 72.201 41.2351C72.201 39.8265 72.4732 38.5954 73.0178 37.5419C73.5623 36.4825 74.3346 35.6598 75.3349 35.0739C76.341 34.482 77.5336 34.1861 78.9126 34.1861C80.2917 34.1861 81.4813 34.482 82.4815 35.0739C83.4877 35.6598 84.263 36.4825 84.8075 37.5419C85.352 38.5954 85.6243 39.8265 85.6243 41.2351C85.6243 42.6319 85.352 43.86 84.8075 44.9194C84.263 45.9729 83.4877 46.7956 82.4815 47.3874C81.4813 47.9734 80.2917 48.2663 78.9126 48.2663ZM78.9304 45.3366C79.5578 45.3366 80.0816 45.1591 80.5018 44.804C80.922 44.4429 81.2386 43.9517 81.4517 43.3303C81.6707 42.7088 81.7802 42.0015 81.7802 41.2085C81.7802 40.4154 81.6707 39.7081 81.4517 39.0866C81.2386 38.4652 80.922 37.974 80.5018 37.6129C80.0816 37.2519 79.5578 37.0714 78.9304 37.0714C78.2971 37.0714 77.7644 37.2519 77.3324 37.6129C76.9063 37.974 76.5837 38.4652 76.3647 39.0866C76.1516 39.7081 76.0451 40.4154 76.0451 41.2085C76.0451 42.0015 76.1516 42.7088 76.3647 43.3303C76.5837 43.9517 76.9063 44.4429 77.3324 44.804C77.7644 45.1591 78.2971 45.3366 78.9304 45.3366ZM101.929 38.2521L98.467 38.4652C98.4078 38.1693 98.2805 37.9029 98.0852 37.6662C97.8899 37.4235 97.6325 37.2312 97.3129 37.0891C96.9992 36.9412 96.6233 36.8672 96.1854 36.8672C95.5994 36.8672 95.1052 36.9915 94.7028 37.2401C94.3003 37.4827 94.0991 37.8082 94.0991 38.2166C94.0991 38.5421 94.2293 38.8174 94.4897 39.0423C94.7501 39.2672 95.197 39.4477 95.8303 39.5838L98.2983 40.081C99.6241 40.3532 100.612 40.7912 101.263 41.3949C101.915 41.9986 102.24 42.7917 102.24 43.7741C102.24 44.6679 101.977 45.4521 101.45 46.1268C100.929 46.8015 100.213 47.3282 99.3015 47.707C98.396 48.0799 97.3513 48.2663 96.1676 48.2663C94.3625 48.2663 92.9242 47.8905 91.853 47.1388C90.7876 46.3813 90.1632 45.3514 89.9798 44.0494L93.6996 43.854C93.812 44.4045 94.0843 44.8247 94.5163 45.1147C94.9484 45.3988 95.5018 45.5408 96.1765 45.5408C96.8394 45.5408 97.372 45.4136 97.7745 45.1591C98.1829 44.8987 98.39 44.5643 98.396 44.1559C98.39 43.8126 98.245 43.5315 97.9609 43.3125C97.6768 43.0876 97.2389 42.916 96.647 42.7976L94.2855 42.3271C92.9538 42.0607 91.9625 41.5991 91.3114 40.9421C90.6663 40.2852 90.3438 39.4477 90.3438 38.4297C90.3438 37.5537 90.5805 36.7991 91.054 36.1658C91.5334 35.5326 92.2051 35.0443 93.0692 34.701C93.9393 34.3577 94.9573 34.1861 96.1232 34.1861C97.8455 34.1861 99.2009 34.5501 100.189 35.2781C101.184 36.006 101.764 36.9974 101.929 38.2521Z" fill="white"/>
<path d="M2.45839 57V20.6364H11.2475V49.8622H26.3753V57H2.45839Z" fill="#0055FF"/>
</svg>
